<svg width="25" height="25" viewBox="0 0 25 25" fill="none" xmlns="http://www.w3.org/2000/svg">
<path d="M8.25909 19.8101H6.33905C3.39905 19.6 2.0791 17.3401 2.0791 15.3301C2.0791 13.3201 3.39906 11.0501 6.28906 10.8501C6.69906 10.8101 7.05905 11.1301 7.08905 11.5501C7.11905 11.9601 6.8091 12.3201 6.3891 12.3501C4.4491 12.4901 3.5791 13.95 3.5791 15.34C3.5791 16.73 4.4491 18.1901 6.3891 18.3301H8.25909C8.66909 18.3301 9.00909 18.6701 9.00909 19.0801C9.00909 19.4901 8.66909 19.8101 8.25909 19.8101Z" fill="#292D32"/>
<path d="M17.4687 19.81C17.4487 19.81 17.4387 19.81 17.4187 19.81C17.0087 19.81 16.6288 19.47 16.6288 19.06C16.6288 18.63 16.9487 18.31 17.3687 18.31C18.5987 18.31 19.6988 17.88 20.5588 17.11C22.1187 15.75 22.2187 13.79 21.7987 12.41C21.3787 11.04 20.2087 9.46997 18.1687 9.21997C17.8387 9.17997 17.5787 8.92998 17.5187 8.59998C17.1187 6.19998 15.8287 4.53997 13.8687 3.93997C11.8487 3.30997 9.48871 3.92997 8.01871 5.46997C6.58871 6.95997 6.25872 9.04998 7.08872 11.35C7.22872 11.74 7.02877 12.17 6.63877 12.31C6.24877 12.45 5.81875 12.25 5.67875 11.86C4.66875 9.03997 5.12876 6.33997 6.93876 4.43997C8.78876 2.49997 11.7588 1.72997 14.3088 2.50997C16.6488 3.22997 18.2987 5.15997 18.8987 7.83997C20.9387 8.29997 22.5787 9.84998 23.2287 11.99C23.9387 14.32 23.2987 16.72 21.5487 18.24C20.4387 19.24 18.9887 19.81 17.4687 19.81Z" fill="#292D32"/>
<path d="M12.7988 22.75C10.7888 22.75 8.90885 21.68 7.87885 19.95C7.76885 19.78 7.65885 19.58 7.56885 19.36C7.22885 18.65 7.04883 17.84 7.04883 17C7.04883 13.83 9.62883 11.25 12.7988 11.25C15.9688 11.25 18.5488 13.83 18.5488 17C18.5488 17.85 18.3689 18.65 18.0089 19.39C17.9289 19.58 17.8189 19.78 17.6989 19.97C16.6889 21.68 14.8088 22.75 12.7988 22.75ZM12.7988 12.75C10.4588 12.75 8.54883 14.66 8.54883 17C8.54883 17.62 8.67883 18.2 8.92883 18.73C9.00883 18.9 9.07881 19.04 9.15881 19.17C9.91881 20.46 11.3088 21.25 12.7888 21.25C14.2688 21.25 15.6588 20.46 16.4088 19.19C16.4988 19.04 16.5789 18.9 16.6389 18.76C16.9089 18.21 17.0388 17.63 17.0388 17.01C17.0488 14.66 15.1388 12.75 12.7988 12.75Z" fill="#292D32"/>
<path d="M12.2287 18.7399C12.0387 18.7399 11.8488 18.6699 11.6988 18.5199L10.7087 17.5299C10.4187 17.2399 10.4187 16.7599 10.7087 16.4699C10.9987 16.1799 11.4787 16.1799 11.7687 16.4699L12.2488 16.9499L13.8487 15.4699C14.1587 15.1899 14.6287 15.2099 14.9087 15.5099C15.1887 15.8099 15.1687 16.2899 14.8687 16.5699L12.7387 18.5399C12.5887 18.6699 12.4087 18.7399 12.2287 18.7399Z" fill="#292D32"/>
</svg>
