<svg width="512" height="512" viewBox="0 0 512 512" fill="none" xmlns="http://www.w3.org/2000/svg">
<path d="M79.8169 201.344C85.5685 199.423 91.7172 198.39 98.12 198.39C126.038 198.39 149.347 218.22 154.686 244.578L194.262 236.505C185.179 191.711 145.594 158 98.12 158C87.2415 158 76.791 159.773 67.0144 163.039L79.8169 201.344Z" fill="#FFCC00"/>
<path d="M33.1114 329.604L59.8742 299.346C47.9275 288.762 40.39 273.316 40.39 256.107C40.39 238.911 47.9172 223.472 59.8561 212.901L33.0909 182.639C12.8023 200.614 0 226.87 0 256.107C0 285.363 12.8075 311.626 33.1114 329.604Z" fill="#00A0DE"/>
<path d="M154.676 267.69C149.314 294.035 126.03 313.827 98.12 313.827C91.7152 313.827 85.5484 312.794 79.7993 310.862L66.9788 349.182C76.758 352.446 87.2291 354.214 98.12 354.214C145.548 354.214 185.129 320.559 194.246 275.806L154.676 267.69Z" fill="#EC3413"/>
<path d="M228.869 300.622C227.573 298.521 225.81 295.162 224.75 292.69C218.483 278.14 218.183 263.083 223.476 248.629C229.295 232.777 240.411 220.641 254.773 214.462C272.831 206.691 292.802 208.223 310.108 218.492C321.102 224.799 328.895 234.537 334.813 248.305L335.363 249.644L336.387 252.304C336.552 252.733 336.714 253.15 336.876 253.55L228.869 300.622ZM264.935 237.819C252.112 243.33 245.502 255.359 246.86 269.463L301.179 246.085C291.838 235.106 279.681 231.468 264.935 237.819ZM328.949 302.723L307.953 288.685L307.923 288.716L306.798 287.958C303.557 293.218 298.499 297.478 292.118 300.245C279.976 305.526 268.724 304.168 260.643 297.081L259.9 298.211C259.893 298.198 259.89 298.188 259.877 298.188L246.096 318.805C249.516 321.182 253.19 323.196 257.048 324.805C272.272 331.128 287.847 330.836 303.19 324.162C314.289 319.353 322.998 312.018 328.949 302.723ZM374.627 184.099V298.719L392.446 305.941L382.321 329.568L362.65 321.377C358.235 319.466 355.23 316.539 352.955 313.237C350.78 309.871 349.153 305.251 349.153 299.031V184.099H374.627ZM420.792 269.519C420.802 259.758 425.112 251.006 431.932 245.057L413.649 224.671C401.249 235.632 393.439 251.647 393.424 269.491C393.404 287.341 401.203 303.373 413.59 314.362L431.852 293.956C425.065 287.984 420.784 279.257 420.792 269.519ZM453.275 302.052C449.675 302.041 446.209 301.447 442.976 300.371L434.245 326.332C440.212 328.335 446.604 329.427 453.247 329.437C482.195 329.465 506.368 308.925 511.968 281.62L485.131 276.139C482.08 290.94 468.975 302.062 453.275 302.052ZM453.355 209.663C446.719 209.655 440.33 210.734 434.371 212.719L443.025 238.703C446.269 237.632 449.735 237.041 453.33 237.041C469.066 237.056 482.18 248.244 485.16 263.086L512 257.642C506.476 230.297 482.327 209.681 453.355 209.663Z" fill="black"/>
</svg>
