<svg width="512" height="512" viewBox="0 0 512 512" fill="none" xmlns="http://www.w3.org/2000/svg">
<path d="M333.533 271.948C331.887 285.355 347.97 283.762 353.7 278.153C357.933 274.009 359.115 266.612 360.073 260.614C360.103 260.426 360.133 260.239 360.163 260.054C347.023 258.446 334.899 260.812 333.533 271.948Z" fill="#B82126"/>
<path d="M420.147 270.397C420.318 278.077 424.039 282.709 431.524 282.548C445.108 282.257 447.339 267.55 449.408 253.915C450.006 249.973 450.591 246.12 451.432 242.732C447.345 241.336 443.307 240.039 437.729 240.663C425.749 242.003 419.849 256.946 420.147 270.397Z" fill="#B82126"/>
<path d="M149.961 274.016C151.107 284.615 165.73 284.712 171.679 278.412C176.605 273.195 180.693 260.299 179.177 249.971C177.43 238.075 160.214 238.938 154.355 246.092C153.861 248.563 153.444 251.168 153.013 253.867C152.704 255.8 152.387 257.781 152.029 259.796C151.789 261.146 151.479 262.501 151.17 263.854C150.385 267.285 149.602 270.708 149.961 274.016Z" fill="#B82126"/>
<path d="M154.355 239.629C154.44 239.557 154.532 239.486 154.62 239.415C154.637 239.592 154.502 239.616 154.355 239.629Z" fill="#B82126"/>
<path d="M207.101 253.332H233.214C235.581 243.345 229.847 240.098 221.838 240.405C213.328 240.73 207.927 247.329 207.101 253.332Z" fill="#B82126"/>
<path fill-rule="evenodd" clip-rule="evenodd" d="M87.49 145H512C503.353 187.62 494.869 229.295 486.418 270.803C484.59 279.781 482.764 288.75 480.938 297.72C480.535 299.703 480.131 301.695 479.726 303.69C477.493 314.709 475.245 325.8 472.914 335.771C466.987 361.118 445.059 367.867 413.121 367.867H0C4.9427 344.234 9.72284 320.085 14.5325 295.787C20.3997 266.146 26.3108 236.283 32.6144 206.865C33.3954 203.221 34.0963 199.502 34.7986 195.775C36.1255 188.735 37.4575 181.667 39.3443 175.026C44.8782 155.552 64.0438 146.109 87.49 145ZM334.292 240.44C334.769 238.573 335.247 236.706 335.601 234.716C337.964 234.648 340.66 234.43 343.499 234.201C356.471 233.153 372.417 231.864 373.09 243.507C373.34 247.818 372.323 252.494 371.275 257.305C370.817 259.409 370.354 261.538 369.988 263.674C369.93 264.012 369.873 264.349 369.815 264.685C368.471 272.53 367.241 279.71 367.144 288.496H357.578C357.427 285.327 357.878 282.762 358.354 280.222C353.772 287.559 340.536 292.899 329.655 288.238C324.005 285.816 321.055 277.142 323.708 268.328C327.667 255.168 342.724 252.099 361.198 253.849L361.218 253.795C362.035 251.526 363.139 248.461 362.491 245.575C360.522 236.819 340.094 241.862 333.533 243.507C333.773 242.471 334.032 241.455 334.292 240.44ZM452.467 235.491C454.118 227.836 455.392 219.801 456.345 211.447H467.463C466.232 218.448 464.883 225.332 463.534 232.215C459.996 250.265 456.459 268.315 455.053 288.496H444.969C445.01 286.33 445.334 284.447 445.659 282.565C445.778 281.874 445.897 281.184 446.002 280.479C445.866 280.028 445.317 280.917 444.753 281.83C444.467 282.293 444.177 282.762 443.935 283.066C442.977 284.266 441.502 285.995 440.056 286.944C432.594 291.852 417.812 290.455 412.65 284.616C409.654 281.228 408.83 276.479 408.771 271.689C408.471 246.924 425.196 226.86 452.467 235.491ZM154.62 239.415C159.591 235.401 171.06 231.182 180.47 234.716C199.833 241.99 188.699 279.139 174.264 286.944C167.268 290.726 150.69 292.598 148.151 282.807C146.62 289.167 145.639 296.075 144.657 302.984C144.202 306.188 143.747 309.391 143.238 312.54H132.12C137.11 287.02 141.837 261.239 145.824 234.716H155.39C155.348 235.579 155.175 236.311 155.002 237.043C154.829 237.775 154.656 238.507 154.614 239.371C154.618 239.387 154.619 239.4 154.62 239.415ZM202.964 241.697C207.79 236.613 214.58 234.301 222.614 233.682C231.777 232.977 240.782 234.876 243.297 242.215C244.73 246.388 243.858 250.888 243.012 255.253C242.731 256.701 242.453 258.135 242.263 259.537C230.257 259.229 217.797 259.156 205.808 259.537C203.947 267.477 203.98 276.614 209.686 280.222C217.244 285 230.002 281.162 237.351 278.412C237.169 279.52 236.948 280.59 236.728 281.66C236.359 283.448 235.99 285.236 235.8 287.202C217.961 291.544 195.659 292.187 193.656 274.275C192.251 261.72 197.045 247.933 202.964 241.697ZM124.622 235.491C124.6 235.125 124.58 234.76 124.881 234.716H135.998C132.163 251.997 129.103 270.051 126.432 288.496H115.314C118.857 271.268 122.172 253.812 124.622 235.491ZM393.776 243.248C396.971 238.305 405.151 230.062 414.977 234.974C414.541 236.382 414.279 237.964 414.018 239.546C413.839 240.626 413.66 241.707 413.426 242.732C396.023 237.81 392.533 254.178 390.155 269.104C389.861 270.953 389.546 272.682 389.241 274.357C388.394 279.014 387.623 283.253 387.57 288.496H376.194C379.917 271.104 383.112 253.183 385.76 234.716H395.585C395.178 235.967 394.954 237.402 394.73 238.837C394.489 240.385 394.248 241.932 393.776 243.248ZM289.061 265.484C288.805 268.807 289.071 273.179 290.095 275.826C293.622 284.936 308.792 282.793 316.727 278.67C316.482 279.838 316.279 281.048 316.076 282.258C315.808 283.853 315.541 285.448 315.176 286.944C300.653 291.96 282.719 291.248 278.719 278.153C275.301 266.962 280.136 249.177 287.51 241.439C295.044 233.534 309.252 232.013 324.225 234.458C324.067 235.656 323.872 236.817 323.677 237.978C323.389 239.695 323.1 241.412 322.931 243.248C313.803 240.057 302.357 239.117 296.559 244.8C292.358 248.917 289.636 258.012 289.061 265.484ZM262.69 243.766C266.283 237.463 274.032 230.735 283.891 234.716C283.759 235.944 283.523 237.068 283.286 238.191C282.983 239.631 282.68 241.071 282.598 242.732C272.165 239.007 264.935 245.835 262.172 253.849C259.703 261.014 258.654 270.274 257.689 278.801C257.303 282.21 256.93 285.501 256.485 288.496H245.367C245.816 286.138 246.268 283.783 246.72 281.429C249.657 266.144 252.593 250.858 254.674 234.716H264.499C264.234 235.909 264.021 237.153 263.808 238.398C263.492 240.244 263.177 242.091 262.69 243.766ZM99.5429 243.507C101.337 233.407 103.126 223.303 104.714 212.998H117.642C112.557 237.561 108.267 262.919 104.197 288.496H91.5276C92.6648 281.284 93.9937 274.264 95.3225 267.245C96.3258 261.946 97.3291 256.646 98.2498 251.264C88.8358 250.367 77.3114 250.665 67.1899 250.927C66.1507 250.954 65.1263 250.98 64.1205 251.005C61.8844 261.286 60.2023 272.122 58.5201 282.958C58.2334 284.805 57.9467 286.651 57.6573 288.496H44.9888C48.4396 271.322 51.4453 253.703 54.4512 236.084C55.7661 228.376 57.0811 220.668 58.4333 212.998H70.8428C69.8134 217.885 68.9254 222.913 68.0374 227.942C67.1274 233.095 66.2175 238.248 65.1555 243.248C74.0095 243.908 83.2767 243.757 92.5054 243.608C94.8562 243.57 97.2045 243.531 99.5429 243.507ZM138.067 212.998C141.328 215.893 138.474 222.848 136.257 224.374C134.847 225.345 130.101 226.461 127.983 224.374C125.808 222.231 127.096 216.462 128.501 214.549C129.374 213.359 130.66 212.6 132.896 212.223C135.306 211.815 137.034 212.081 138.067 212.998Z" fill="#B82126"/>
</svg>
