<svg width="21" height="20" viewBox="0 0 21 20" fill="none" xmlns="http://www.w3.org/2000/svg">
<path d="M18.6716 8.36788H18.0003V8.33329H10.5003V11.6666H15.2099C14.5228 13.607 12.6766 15 10.5003 15C7.73908 15 5.50033 12.7612 5.50033 9.99996C5.50033 7.23871 7.73908 4.99996 10.5003 4.99996C11.7749 4.99996 12.9345 5.48079 13.8174 6.26621L16.1745 3.90913C14.6862 2.52204 12.6953 1.66663 10.5003 1.66663C5.89824 1.66663 2.16699 5.39788 2.16699 9.99996C2.16699 14.602 5.89824 18.3333 10.5003 18.3333C15.1024 18.3333 18.8337 14.602 18.8337 9.99996C18.8337 9.44121 18.7762 8.89579 18.6716 8.36788Z" fill="#FBC02D"/>
<path d="M3.12793 6.12121L5.86585 8.12913C6.60668 6.29496 8.40085 4.99996 10.5004 4.99996C11.775 4.99996 12.9346 5.48079 13.8175 6.26621L16.1746 3.90913C14.6863 2.52204 12.6954 1.66663 10.5004 1.66663C7.2996 1.66663 4.52376 3.47371 3.12793 6.12121Z" fill="#E53935"/>
<path d="M10.4998 18.3334C12.6523 18.3334 14.6081 17.5096 16.0869 16.17L13.5077 13.9875C12.6711 14.6213 11.6311 15 10.4998 15C8.3323 15 6.49189 13.618 5.79855 11.6892L3.08105 13.783C4.46022 16.4817 7.26105 18.3334 10.4998 18.3334Z" fill="#4CAF50"/>
<path d="M18.6712 8.36796L18.6646 8.33337H18H10.5V11.6667H15.2096C14.8796 12.5988 14.28 13.4025 13.5067 13.988L13.5079 13.9871L16.0871 16.1696C15.9046 16.3355 18.8333 14.1667 18.8333 10C18.8333 9.44129 18.7758 8.89587 18.6712 8.36796Z" fill="#1565C0"/>
</svg>
