<svg width="512" height="512" viewBox="0 0 512 512" fill="none" xmlns="http://www.w3.org/2000/svg">
<path d="M325.228 131.82H186.781V380.612H325.228V131.82Z" fill="#FF5F00"/>
<path d="M195.571 256.225C195.549 232.264 200.978 208.613 211.448 187.061C221.919 165.509 237.155 146.622 256.003 131.829C232.662 113.482 204.629 102.072 175.11 98.9037C145.591 95.7353 115.776 100.936 89.0725 113.912C62.3692 126.887 39.8553 147.114 24.1041 172.28C8.35298 197.446 0 226.536 0 256.225C0 285.914 8.35298 315.004 24.1041 340.17C39.8553 365.336 62.3692 385.562 89.0725 398.538C115.776 411.513 145.591 416.714 175.11 413.546C204.629 410.378 232.662 398.968 256.003 380.621C237.155 365.828 221.919 346.941 211.449 325.389C200.979 303.837 195.549 280.185 195.571 256.225Z" fill="#EB001B"/>
<path d="M512 256.225C512.001 285.913 503.649 315.003 487.899 340.169C472.149 365.335 449.636 385.562 422.933 398.538C396.23 411.513 366.415 416.714 336.896 413.546C307.378 410.378 279.346 398.968 256.005 380.621C274.837 365.813 290.061 346.922 300.529 325.374C310.998 303.825 316.437 280.181 316.437 256.225C316.437 232.268 310.998 208.624 300.529 187.076C290.061 165.527 274.837 146.637 256.005 131.828C279.346 113.482 307.378 102.072 336.896 98.9036C366.415 95.7353 396.23 100.936 422.933 113.912C449.636 126.888 472.149 147.114 487.899 172.28C503.649 197.447 512.001 226.536 512 256.225Z" fill="#F79E1B"/>
<path d="M496.905 354.265V349.171H498.959V348.134H493.729V349.171H495.783V354.265H496.905ZM507.06 354.265V348.124H505.457L503.613 352.348L501.768 348.124H500.164V354.265H501.296V349.632L503.026 353.626H504.199L505.929 349.622V354.265H507.06Z" fill="#F79E1B"/>
</svg>
