<svg width="24" height="24" viewBox="0 0 24 24" fill="none" xmlns="http://www.w3.org/2000/svg">
<path fill-rule="evenodd" clip-rule="evenodd" d="M5.52736 15.563C5.83154 15.9561 5.75946 16.5214 5.36635 16.8255C4.65529 17.3757 4.2002 18.2345 4.2002 19.2C4.2002 19.3883 4.21744 19.5721 4.25032 19.7499C4.42815 19.7828 4.61188 19.8 4.8002 19.8C5.76569 19.8 6.62447 19.3449 7.17467 18.6339C7.47886 18.2408 8.04413 18.1687 8.43724 18.4729C8.83035 18.777 8.90244 19.3423 8.59826 19.7354C7.72184 20.8681 6.34628 21.6 4.8002 21.6C4.24823 21.6 3.7162 21.5065 3.22027 21.3337C2.96086 21.2433 2.75693 21.0394 2.66654 20.7799C2.49373 20.284 2.4002 19.752 2.4002 19.2C2.4002 17.6539 3.13216 16.2784 4.26479 15.402C4.6579 15.0978 5.22317 15.1699 5.52736 15.563Z" fill="#783EFD"/>
<path fill-rule="evenodd" clip-rule="evenodd" d="M6.90303 14.4C7.68876 15.4052 8.59504 16.3114 9.6002 17.0972V21.9C9.6002 22.3971 10.0031 22.8 10.5002 22.8C13.8139 22.8 16.5002 20.1137 16.5002 16.8C16.5002 16.2117 16.4153 15.6421 16.2567 15.1034C20.2162 12.2756 22.8002 7.63982 22.8002 2.40001C22.8002 2.29482 22.7992 2.18985 22.7971 2.08512C22.7875 1.60203 22.3982 1.21271 21.9151 1.20313C21.8104 1.20106 21.7054 1.20001 21.6002 1.20001C16.3604 1.20001 11.7246 3.78398 8.89684 7.74351C8.35815 7.58495 7.78853 7.50001 7.2002 7.50001C3.88649 7.50001 1.2002 10.1863 1.2002 13.5C1.2002 13.9971 1.60314 14.4 2.1002 14.4H6.90303ZM15.6002 10.8C16.9257 10.8 18.0002 9.7255 18.0002 8.40001C18.0002 7.07453 16.9257 6.00001 15.6002 6.00001C14.2747 6.00001 13.2002 7.07453 13.2002 8.40001C13.2002 9.7255 14.2747 10.8 15.6002 10.8Z" fill="#783EFD"/>
</svg>
