<svg width="14" height="15" viewBox="0 0 14 15" fill="none" xmlns="http://www.w3.org/2000/svg">
<path d="M6.99984 1.66663C3.78567 1.66663 1.1665 4.28579 1.1665 7.49996C1.1665 10.7141 3.78567 13.3333 6.99984 13.3333C10.214 13.3333 12.8332 10.7141 12.8332 7.49996C12.8332 4.28579 10.214 1.66663 6.99984 1.66663ZM9.78817 6.15829L6.48067 9.46579C6.399 9.54746 6.28817 9.59413 6.1715 9.59413C6.05484 9.59413 5.944 9.54746 5.86234 9.46579L4.2115 7.81496C4.04234 7.64579 4.04234 7.36579 4.2115 7.19663C4.38067 7.02746 4.66067 7.02746 4.82984 7.19663L6.1715 8.53829L9.16984 5.53996C9.339 5.37079 9.619 5.37079 9.78817 5.53996C9.95734 5.70913 9.95734 5.98329 9.78817 6.15829Z" fill="#3EBF8F"/>
</svg>
