<?xml version="1.0" encoding="UTF-8"?>
<!DOCTYPE svg PUBLIC "-//W3C//DTD SVG 1.1//EN" "http://www.w3.org/Graphics/SVG/1.1/DTD/svg11.dtd">
<svg xmlns="http://www.w3.org/2000/svg" version="1.1" width="500px" height="500px" style="shape-rendering:geometricPrecision; text-rendering:geometricPrecision; image-rendering:optimizeQuality; fill-rule:evenodd; clip-rule:evenodd" xmlns:xlink="http://www.w3.org/1999/xlink">
<g><path style="opacity:1" fill="#fefefe" d="M -0.5,-0.5 C 166.167,-0.5 332.833,-0.5 499.5,-0.5C 499.5,166.167 499.5,332.833 499.5,499.5C 332.833,499.5 166.167,499.5 -0.5,499.5C -0.5,332.833 -0.5,166.167 -0.5,-0.5 Z"/></g>
<g><path style="opacity:1" fill="#7b42fd" d="M 262.5,215.5 C 269.361,214.965 276.028,215.798 282.5,218C 283,218.5 283.5,219 284,219.5C 284.499,223.152 284.665,226.818 284.5,230.5C 281.506,229.846 278.506,229.179 275.5,228.5C 271.313,227.841 269.98,229.341 271.5,233C 275.753,233.2 279.92,233.7 284,234.5C 284.667,238.833 284.667,243.167 284,247.5C 280.27,248.46 276.437,248.793 272.5,248.5C 272.86,259.84 273.027,271.174 273,282.5C 265.333,283.833 257.667,283.833 250,282.5C 249.5,271.172 249.333,259.838 249.5,248.5C 243.253,249.751 240.92,247.251 242.5,241C 241.095,234.24 243.761,231.74 250.5,233.5C 248.62,223.406 252.62,217.406 262.5,215.5 Z"/></g>
<g><path style="opacity:1" fill="#7940fd" d="M 166.5,217.5 C 172.842,217.334 179.175,217.5 185.5,218C 186,218.5 186.5,219 187,219.5C 185.783,240.772 185.283,262.106 185.5,283.5C 177.913,283.814 170.413,283.481 163,282.5C 162.232,261.815 162.566,241.149 164,220.5C 165.045,219.627 165.878,218.627 166.5,217.5 Z"/></g>
<g><path style="opacity:1" fill="#7b41fd" d="M 195.5,217.5 C 202.226,217.205 208.892,217.538 215.5,218.5C 215.833,219.667 216.167,220.833 216.5,222C 215.868,242.391 215.202,262.725 214.5,283C 206.92,283.813 199.42,283.647 192,282.5C 191.415,262.488 191.748,242.488 193,222.5C 193.366,220.548 194.199,218.882 195.5,217.5 Z"/></g>
<g><path style="opacity:1" fill="#7a41fd" d="M 291.5,217.5 C 298.09,217.189 304.59,217.522 311,218.5C 310.996,240.063 310.496,261.563 309.5,283C 302.5,283.667 295.5,283.667 288.5,283C 288,282.5 287.5,282 287,281.5C 286.779,260.814 287.445,240.147 289,219.5C 289.995,218.934 290.828,218.267 291.5,217.5 Z"/></g>
<g><path style="opacity:1" fill="#7a41fd" d="M 71.5,233.5 C 78.175,233.334 84.8417,233.5 91.5,234C 93.7619,234.642 95.9285,235.475 98,236.5C 98.2307,241.755 97.7307,246.921 96.5,252C 93.3513,252.274 90.3513,251.608 87.5,250C 78.4947,246.916 73.1614,249.916 71.5,259C 71.3204,263.31 73.3204,265.976 77.5,267C 81.1667,267.667 84.8333,267.667 88.5,267C 92.6412,265.25 96.6412,263.584 100.5,262C 101.833,268.333 101.833,274.667 100.5,281C 87.7624,285.421 75.0958,285.421 62.5,281C 51.2632,273.626 47.7632,263.46 52,250.5C 55.936,241.721 62.436,236.054 71.5,233.5 Z"/></g>
<g><path style="opacity:1" fill="#7a41fd" d="M 115.5,233.5 C 124.173,233.334 132.84,233.5 141.5,234C 150.479,235.977 155.645,241.477 157,250.5C 158.504,261.381 158.671,272.214 157.5,283C 150.45,283.797 143.45,283.63 136.5,282.5C 136.063,278.821 135.73,275.154 135.5,271.5C 131.518,281.551 124.185,285.717 113.5,284C 105.849,280.636 103.015,274.802 105,266.5C 108.018,261.155 112.518,257.655 118.5,256C 123.833,255 129.167,254 134.5,253C 135.86,251.062 135.527,249.396 133.5,248C 125.446,246.575 118.112,248.242 111.5,253C 110.5,253.667 109.5,253.667 108.5,253C 107.365,248.252 107.198,243.419 108,238.5C 108.374,237.584 108.874,236.75 109.5,236C 111.611,235.155 113.611,234.322 115.5,233.5 Z"/></g>
<g><path style="opacity:1" fill="#7a41fd" d="M 334.5,233.5 C 344.532,232.2 353.865,234.033 362.5,239C 372.633,250.025 374.133,262.192 367,275.5C 358.348,283.261 348.181,286.094 336.5,284C 325.645,282.808 318.812,276.975 316,266.5C 313.364,250.428 319.531,239.428 334.5,233.5 Z"/></g>
<g><path style="opacity:1" fill="#7a40fd" d="M 374.5,233.5 C 381.175,233.334 387.842,233.5 394.5,234C 395,234.5 395.5,235 396,235.5C 396.335,243.529 397.002,251.529 398,259.5C 399,260.833 400,260.833 401,259.5C 402.574,252.145 404.241,244.812 406,237.5C 408.475,234.476 411.475,233.81 415,235.5C 417.806,241.859 419.473,248.525 420,255.5C 421.56,261.196 423.226,261.53 425,256.5C 425.667,249.167 426.333,241.833 427,234.5C 433.752,233.355 440.586,233.189 447.5,234C 447.3,250.044 444.967,265.877 440.5,281.5C 439.975,282.192 439.308,282.692 438.5,283C 431.833,283.667 425.167,283.667 418.5,283C 418,282.5 417.5,282 417,281.5C 415.854,273.92 414.021,266.587 411.5,259.5C 410.914,259.709 410.414,260.043 410,260.5C 408.344,267.968 406.511,275.302 404.5,282.5C 397.55,283.63 390.55,283.797 383.5,283C 380.145,276.264 377.979,269.097 377,261.5C 374.869,252.172 374.035,242.839 374.5,233.5 Z"/></g>
<g><path style="opacity:1" fill="#faf8ff" d="M 339.5,249.5 C 342.187,249.336 344.854,249.503 347.5,250C 348.701,250.903 349.535,252.069 350,253.5C 350.667,256.833 350.667,260.167 350,263.5C 347.661,268.256 344.161,269.423 339.5,267C 334.207,261.136 334.207,255.303 339.5,249.5 Z"/></g>
<g><path style="opacity:1" fill="#f8f4ff" d="M 129.5,258.5 C 135.067,257.753 136.9,260.087 135,265.5C 131.165,269.759 127.999,269.426 125.5,264.5C 126.432,262.235 127.765,260.235 129.5,258.5 Z"/></g>
<g><path style="opacity:1" fill="#343435" d="M 224.5,264.5 C 227.85,264.335 231.183,264.502 234.5,265C 241.694,269.84 242.361,275.507 236.5,282C 225.197,286.116 219.697,282.283 220,270.5C 221.332,268.34 222.832,266.34 224.5,264.5 Z"/></g>
</svg>
