<svg width="24" height="24" viewBox="0 0 24 24" fill="none" xmlns="http://www.w3.org/2000/svg">
<path d="M17.8754 17.5642C17.4703 17.5651 17.0689 17.4858 16.6946 17.3308C16.3203 17.1758 15.9803 16.9482 15.6944 16.6612L12.5444 13.5112C12.4329 13.4053 12.285 13.3462 12.1312 13.3462C11.9773 13.3462 11.8294 13.4053 11.7179 13.5112L8.55591 16.6732C8.27007 16.9604 7.93015 17.188 7.55579 17.343C7.18144 17.498 6.78008 17.5773 6.37491 17.5762H5.75391L9.74391 21.5662C10.9889 22.8112 13.0094 22.8112 14.2544 21.5662L18.2549 17.5642H17.8754ZM6.37491 6.4222C7.19991 6.4222 7.97391 6.7432 8.55591 7.3252L11.7179 10.4872C11.7722 10.5416 11.8368 10.5848 11.9078 10.6143C11.9789 10.6437 12.055 10.6589 12.1319 10.6589C12.2088 10.6589 12.285 10.6437 12.356 10.6143C12.427 10.5848 12.4916 10.5416 12.5459 10.4872L15.6959 7.3372C15.9816 7.05022 16.3212 6.82267 16.6953 6.66768C17.0694 6.51269 17.4705 6.43334 17.8754 6.4342H18.2549L14.2544 2.4337C13.6561 1.83584 12.8449 1.5 11.9992 1.5C11.1534 1.5 10.3422 1.83584 9.74391 2.4337L5.75391 6.4237L6.37491 6.4222Z" fill="#FFF"/>
<path d="M21.5655 9.7432L19.1475 7.3252C19.0932 7.34749 19.0352 7.3592 18.9765 7.3597H17.877C17.3085 7.3597 16.752 7.5907 16.3515 7.9927L13.2015 11.1427C13.0614 11.2835 12.8949 11.3953 12.7114 11.4715C12.528 11.5478 12.3314 11.587 12.1327 11.587C11.9341 11.587 11.7374 11.5478 11.554 11.4715C11.3706 11.3953 11.2041 11.2835 11.064 11.1427L7.90198 7.9792C7.49631 7.57519 6.94752 7.34769 6.37498 7.3462H5.02498C4.96902 7.34575 4.91361 7.33508 4.86148 7.3147L2.43448 9.7432C1.18948 10.9882 1.18948 13.0087 2.43448 14.2552L4.86148 16.6822C4.91303 16.6615 4.96793 16.6503 5.02348 16.6492H6.37498C6.94498 16.6492 7.49998 16.4197 7.90198 16.0177L11.0625 12.8542C11.3509 12.5796 11.7338 12.4265 12.132 12.4265C12.5302 12.4265 12.9131 12.5796 13.2015 12.8542L16.3515 16.0042C16.752 16.4062 17.3085 16.6357 17.877 16.6357H18.9765C19.0365 16.6357 19.095 16.6507 19.1475 16.6717L21.5655 14.2537C22.8105 13.0087 22.8105 10.9882 21.5655 9.7432Z" fill="#FFF"/>
</svg>
